# xmcd
#
# Track frame offsets: 
#        150
#        12300
#        23130
#        35282
#        47680
#        61845
#        75890
#        89875
#        103695
#        116882
#        131717
#        146080
#        160750
#        175190
#        188887
#        203615
#        217695
#        232707
#        248182
#        262265
#        275835
#        290417
#        303922
#        316730
#
# Disc length: 4398 seconds
#
# Revision: 0
# Processed by: cddbd v1.5.1PL0 Copyright (c) Steve Scherf et al.
# Submitted via: ExactAudioCopy v0.95a5
#
DISCID=4d112c18
DTITLE=Various Artist - Memphis Gospel 1927-1929
DYEAR=1993
DGENRE=Blues
TTITLE0=REV.SISTER MARY M.NELSON -- The Royal Telephone
TTITLE1=REV.SISTER MARY M.NELSON -- Judgment
TTITLE2=REV.SISTER MARY M.NELSON -- The Seat Of God
TTITLE3=REV.SISTER MARY M.NELSON -- Isaiah - дл
TTITLE4=LONNIE McINTORSH -- Sleep On, Mother Sleep On
TTITLE5=LONNIE McINTORSH -- The Lion And The Tribes Of Judah
TTITLE6=LONNIE McINTORSH -- Arise And Shine
TTITLE7=LONNIE McINTORSH -- How Much I Owe
TTITLE8=ELDERS McINTORSH and EDWARDS -- What Kind Of Man Jesus Is
TTITLE9=ELDERS McINTORSH and EDWARDS -- Since I Laid My Burden Down
TTITLE10=ELDERS McINTORSH and EDWARDS -- The 1927 Flood
TTITLE11=ELDERS McINTORSH and EDWARDS -- The Latter Rain Is Fall
TTITLE12=ELDERS McINTORSH and EDWARDS -- Take A Stand
TTITLE13=ELDERS McINTORSH and EDWARDS -- Behold! The King Shall Reign
TTITLE14=REV. JOHNNY BLAKEY -- King Of Kings
TTITLE15=REV. JOHNNY BLAKEY --Jesus Was Here On Business
TTITLE16=REV. JOHNNY BLAKEY --Warming By The Devil's Fire
TTITLE17=REV. JOHNNY BLAKEY --The Devil Is Loose In The World
TTITLE18=BESSIE JOHNSON -- No Room At The Hotel
TTITLE19=BESSIE JOHNSON -- Key To The Kingdom
TTITLE20=BESSIE JOHNSON -- One Day
TTITLE21=BESSIE JOHNSON -- The Whole World In His Hand
TTITLE22=BESSIE JOHNSON -- The Great Reaping Day
TTITLE23=He Got Better Things For You
EXTD=
EXTT0=
EXTT1=
EXTT2=
EXTT3=
EXTT4=
EXTT5=
EXTT6=
EXTT7=
EXTT8=
EXTT9=
EXTT10=
EXTT11=
EXTT12=
EXTT13=
EXTT14=
EXTT15=
EXTT16=
EXTT17=
EXTT18=
EXTT19=
EXTT20=
EXTT21=
EXTT22=
EXTT23=
PLAYORDER=
